<?xml version="1.0" encoding="UTF-8"?>
<svg id="Layer_1" data-name="Layer 1" xmlns="http://www.w3.org/2000/svg" xmlns:xlink="http://www.w3.org/1999/xlink" viewBox="0 0 381.8 450.95">
  <defs>
    <style>
      .cls-1 {
        fill: #fff;
      }

      .cls-2 {
        fill: url(#radial-gradient);
      }

      .cls-3 {
        fill: #2d343d;
      }
    </style>
    <radialGradient id="radial-gradient" cx="202.62" cy="374.65" fx="202.62" fy="374.65" r="138.26" gradientTransform="translate(-65.6 -269.69) scale(1.3 1.35)" gradientUnits="userSpaceOnUse">
      <stop offset=".66" stop-color="#f6921e"/>
      <stop offset=".92" stop-color="#f05a28"/>
      <stop offset="1" stop-color="#ee4036"/>
    </radialGradient>
  </defs>
  <circle class="cls-2" cx="198.38" cy="236.68" r="183.42"/>
  <path class="cls-1" d="M126.53,263.11c-20.56,61.9-6.89,148.67,56.3,187.43,65.37-1.98,111.16-18.22,148.98-53.35-87.39-1.07-169.64-45.52-205.28-134.08Z"/>
  <path class="cls-1" d="M135.57,354.22l85.96-136.77,13.11-21.78,21.67-34.44,17.89,48c19.24,7.78,29.19,14.35,42.22,27.46l18-1.01c4.81,2.17,7.97,5.28,6.67,11.11-1.33,14.22-13.16,26.55-26.22,33l-31.47,1.92c-13.02,8.42-9.61,17.86-8.53,29.3,3.65,34.72.15,50.25-15.56,73.81-74.17,53.36-114.14,48.54-123.74-30.59Z"/>
  <path class="cls-3" d="M132.66,369.26l78.6-129.22,11.38-16.85,32.75-54,16.89,42.45c17.02,6.89,31.22,16.18,42.75,27.78l18.27-.94c4.25,1.92,5.29,5.76,4.14,10.92-2.8,12.82-11.54,20.82-23.1,26.53l-32.75,2.5c-11.52,7.45-13.02,17.04-12.07,27.15,3.23,30.71-1.97,56.56-15.86,77.41-65.61,47.2-112.51,56.27-121.01-13.73Z"/>
  <path class="cls-1" d="M293.5,188.2c15.59-80.97-2.53-146.42-67.67-188.2-66.7,3.02-112.37,27.91-153.17,65.53,100.51-22.62,165.99,22.59,220.85,122.67Z"/>
  <path class="cls-3" d="M291.85,180.75c12.97-72.68-2.64-135.21-66.03-180.75-63.14,2.65-110.85,25.27-148.13,61.38,95.09-20.93,164.24,24.61,214.16,119.36Z"/>
  <path class="cls-1" d="M222.64,129.23c-72.89-58.44-135-64.56-182.44-25.67L.77,265.73c57.87-81.83,95.64-131.39,221.87-136.5Z"/>
  <path class="cls-3" d="M215.35,127.17c-57.05-42.24-114.57-61.87-173.27-26.23C7.4,148.78-3.14,204.8.77,265.73,48.01,178.59,115.72,125.99,215.35,127.17Z"/>
  <path class="cls-1" d="M143.19,161.78c-64.78,25.22-122.68,76.45-123.47,164.99,21.3,52.91,57.3,88.95,106.69,109.63-41.56-75.17-54.23-177.84,16.77-274.62Z"/>
  <path class="cls-3" d="M133.45,169.19c-57.55,27.29-105.64,66.74-113.73,157.58,21.3,52.91,57.3,88.95,106.69,109.63-43.54-75.67-60.83-160.23,7.03-267.21Z"/>
  <path class="cls-3" d="M126.8,275.43c-12.13,62.73-5,122.73,56.02,175.11,64.63,3.61,112.26-17.08,148.98-53.35-96.42,3.27-166.66-34.34-205-121.76Z"/>
</svg>